<?xml version="1.0" encoding="UTF-8" standalone="no"?>
<svg width="122px" height="123px" viewBox="0 0 122 123" version="1.1" xmlns="http://www.w3.org/2000/svg" xmlns:xlink="http://www.w3.org/1999/xlink" xmlns:sketch="http://www.bohemiancoding.com/sketch/ns">
    <!-- Generator: Sketch 3.2.2 (9983) - http://www.bohemiancoding.com/sketch -->
    <title>DragonBarbudo</title>
    <desc>Created with Sketch.</desc>
    <defs></defs>
    <g id="Page-1" stroke="none" stroke-width="1" fill="none" fill-rule="evenodd" sketch:type="MSPage">
        <g id="DragonBarbudo" sketch:type="MSLayerGroup">
            <path d="M121.5869,61.5522 C121.5869,95.0132 94.4619,122.1382 60.9999,122.1382 C27.5379,122.1382 0.4129,95.0132 0.4129,61.5522 C0.4129,28.0902 27.5379,0.9652 60.9999,0.9652 C94.4619,0.9652 121.5869,28.0902 121.5869,61.5522" id="Fill-85" fill="#FFC200" sketch:type="MSShapeGroup"></path>
            <path d="M46.6064,72.1479 C45.2644,73.3189 43.7834,76.2049 44.1774,80.0629 C44.5114,83.3269 47.5894,88.9039 54.2624,88.9039 C57.8874,88.9039 60.2414,87.8979 62.4284,85.7989 C65.6224,82.7359 66.8874,79.2939 67.6564,75.2419 C68.0474,73.2139 68.2294,71.1559 68.2484,69.1129 L68.2514,68.5479 C68.2334,67.9249 68.2214,67.4059 68.2214,67.3919 C68.2214,67.3779 68.2754,66.7299 68.3434,65.9819 C68.3434,65.9819 68.4334,65.0069 68.7494,63.9719 C69.0554,62.9279 69.5354,62.0039 70.1684,61.0979 C70.7954,60.1999 71.5094,59.4249 71.5094,59.4249 C72.0164,58.8729 72.8954,58.8239 73.4604,59.3169 L76.2554,61.7459 C76.8244,62.2379 77.4044,62.0379 77.5444,61.3019 L78.6824,55.4429 C78.8274,54.7099 79.0624,53.5039 79.2054,52.7699 L80.3444,46.9029 C80.4884,46.1679 80.0244,45.7649 79.3164,46.0079 L73.6734,47.9519 C72.9664,48.1959 71.8064,48.5969 71.0974,48.8409 L65.4444,50.7869 C64.7374,51.0309 64.6224,51.6329 65.1854,52.1249 L67.9734,54.5449 C68.5394,55.0379 68.6274,55.9189 68.1724,56.5039 C67.7164,57.0889 66.3574,58.2719 66.0434,57.5899 L63.1694,52.6829 C62.7384,52.0719 62.8294,51.1469 63.3724,50.6289 L67.0814,47.0969 C67.6254,46.5799 67.4784,45.9839 66.7594,45.7739 L59.0264,43.5019 C58.3074,43.2919 57.1284,42.9459 56.4104,42.7359 L48.6814,40.4629 C47.9604,40.2519 47.5194,40.6749 47.6954,41.4029 L49.5964,49.2319 C49.7734,49.9609 50.0624,51.1529 50.2384,51.8819 L52.1364,59.7149 C52.3124,60.4439 52.9004,60.6179 53.4414,60.0999 L57.3314,56.3919 C57.8734,55.8749 58.6824,55.9439 59.1274,56.5459 C59.1274,56.5459 62.1904,60.6649 63.0434,63.9529 C63.4894,65.6499 63.7574,67.4179 63.8654,69.2229 C63.9194,69.9999 63.9204,70.1859 63.9204,70.1859 C63.9244,70.9369 63.6554,70.9999 63.3234,70.3279 C63.3234,70.3279 63.1834,70.0449 62.6434,69.3439 C62.0744,68.5869 61.3414,67.9209 60.5684,67.4029 C59.8014,66.8819 59.4814,66.7259 59.4814,66.7259 C58.8094,66.3949 58.4994,65.5589 58.7944,64.8709 L59.3144,63.6459 C59.6084,62.9559 59.2384,62.4659 58.4954,62.5559 L55.7414,62.8909 C54.9984,62.9809 53.7804,63.1319 53.0354,63.2209 L50.2854,63.5579 C49.5384,63.6479 49.2994,64.2119 49.7514,64.8099 L51.4184,67.0269 C51.8694,67.6269 52.6054,68.6059 53.0554,69.2059 L54.7204,71.4229 C55.1714,72.0219 55.7784,71.9479 56.0734,71.2579 L56.5994,70.0249 C56.8924,69.3339 57.7044,68.9939 58.4054,69.2659 C58.4054,69.2659 58.5554,69.3259 59.1614,69.6659 C59.7714,70.0069 60.2974,70.3999 60.7634,70.9039 C61.2284,71.4069 61.6274,72.0149 61.9894,72.6729 C62.1664,73.0089 62.3504,73.3529 62.4714,73.6609 C62.6044,73.9799 62.7154,74.3179 62.7904,74.6679 C63.1204,76.0689 63.1104,77.6209 62.6634,79.0579 C61.5634,82.5929 58.5594,85.4359 54.2624,85.4359 C50.6594,85.4359 47.5424,83.2359 46.1774,80.0289 C45.3174,78.0029 45.0954,75.0559 46.7414,72.2239 C46.7604,72.1929 46.8144,72.1009 46.7934,72.0749 C46.7674,72.0419 46.6414,72.1169 46.6064,72.1479" id="Fill-87" fill="#231F1F" sketch:type="MSShapeGroup"></path>
        </g>
    </g>
</svg>